Coordinates
version=1
nRows=17
nColumns=36
inDegrees=yes

Units are S.I. units (second, meters, Newtons, ...)
If the header above contains a line with 'inDegrees', this indicates whether rotational values are in degrees (yes) or radians (no).

endheader
time	pelvis_tilt	pelvis_list	pelvis_rotation	pelvis_tx	pelvis_ty	pelvis_tz	hip_flexion_r	hip_adduction_r	hip_rotation_r	knee_angle_r	knee_angle_r_beta	ankle_angle_r	subtalar_angle_r	mtp_angle_r	hip_flexion_l	hip_adduction_l	hip_rotation_l	knee_angle_l	knee_angle_l_beta	ankle_angle_l	subtalar_angle_l	mtp_angle_l	lumbar_extension	lumbar_bending	lumbar_rotation	arm_flex_r	arm_add_r	arm_rot_r	elbow_flex_r	pro_sup_r	arm_flex_l	arm_add_l	arm_rot_l	elbow_flex_l	pro_sup_l
      2.15000000	    -22.12357466	    -12.35681118	      0.78052439	      0.46167731	      0.74985109	      0.14864788	     70.76840482	     16.41012676	    -10.22386882	     75.70961617	      1.32138208	     42.41321668	      0.96419420	     -7.49999872	     92.44519117	    -16.22233502	     17.88482614	     50.98155863	      0.88979606	     11.76837897	      9.08648780	     -7.49999872	    -28.49342608	     13.99224596	     12.05017890	     55.57314963	    -18.21247350	     67.74733881	    121.05338110	     83.98503449	     60.42409916	     -5.51808480	     70.97444208	    115.48168155	    100.08198554
      2.16666670	    -22.55709520	    -12.46914395	      0.64459808	      0.46757658	      0.75035755	      0.14623986	     71.34152566	     16.43594303	    -10.25090211	     75.97599080	      1.32603119	     42.66852539	      1.14373600	     -7.49999875	     93.02042158	    -16.21256658	     18.11617944	     51.28293932	      0.89505614	     12.20861556	      9.22960529	     -7.49999875	    -27.75398537	     14.24187467	     11.75139473	     54.56628418	    -18.23835432	     67.76632079	    120.78915117	     84.11059019	     59.60203620	     -5.58746587	     70.96517211	    115.39587838	    100.28055018
      2.18333330	    -22.52075213	    -12.38695595	      0.61897832	      0.46709115	      0.75209924	      0.14576774	     71.14615194	     16.28854713	    -10.10950096	     76.03831099	      1.32711888	     42.88145331	      1.46657991	     -7.49999885	     92.80678061	    -16.19730368	     17.95628796	     51.00910107	      0.89027676	     12.57192709	      9.30892784	     -7.49999885	    -27.74889679	     14.32682000	     11.55428568	     54.16778736	    -18.19137879	     67.77176983	    120.65490171	     82.83733564	     58.96849081	     -5.84709188	     71.46079936	    115.49995618	     99.19213200
      2.20000000	    -22.53739042	    -12.50195852	      0.56206851	      0.46700846	      0.75009887	      0.14640853	     71.24993849	     16.25212649	    -10.23540032	     76.04881854	      1.32730228	     42.79224950	      1.67386610	     -7.49999890	     92.84454488	    -16.31055008	     17.89217195	     50.79261779	      0.88649842	     12.56890795	      9.41925939	     -7.49999890	    -27.51256603	     14.48222947	     11.60103588	     54.04884977	    -18.13055333	     67.84477230	    120.74730995	     82.54731110	     58.70449362	     -5.84952092	     71.69729119	    115.62846106	     98.52657762
      2.21666670	    -22.76391068	    -12.61179961	      0.47117841	      0.46650842	      0.75142143	      0.14589531	     71.48724796	     16.09594132	    -10.45691009	     75.99255997	      1.32632038	     42.80342255	      1.91658155	     -7.49999922	     93.02953337	    -16.28189221	     17.94495614	     50.54666383	      0.88220571	     12.56796410	      9.41400778	     -7.49999922	    -27.09399686	     14.68226946	     11.91698165	     53.56594443	    -18.80776758	     66.02370493	    120.53369935	     84.77604231	     58.50566098	     -5.54362624	     71.49020210	    114.99439575	    102.15181394
      2.23333330	    -22.54997538	    -12.56381634	      0.32988325	      0.46703885	      0.75533776	      0.14638404	     70.94220825	     16.09772764	    -10.36144065	     75.51825360	      1.31804217	     42.67650458	      2.15823445	     -7.49999932	     92.35091845	    -16.44233581	     17.73860374	     49.78395915	      0.86889400	     12.37821164	      9.35819931	     -7.49999932	    -27.21095994	     14.72139102	     11.74427185	     53.26334913	    -18.65698620	     66.01559068	    120.55839382	     84.67978888	     58.27883733	     -6.02557964	     71.37529866	    115.30851854	    102.57643357
      2.25000000	    -22.42250728	    -12.47090184	      0.22807183	      0.46687794	      0.75508470	      0.14623414	     70.48747207	     16.06949198	    -10.19917077	     75.28926602	      1.31404558	     42.73327892	      2.45138800	     -7.49999935	     91.95957596	    -16.54845831	     17.62027686	     49.41018063	      0.86237034	     12.42534413	      9.33156031	     -7.49999935	    -26.99945078	     14.74955686	     11.41514802	     52.69099371	    -18.55685794	     65.86603235	    120.36925356	     84.10429014	     58.35380076	     -6.25834269	     71.44099084	    115.29169924	    101.54981882
      2.26666670	    -22.30310603	    -12.43519861	      0.26454805	      0.46195958	      0.75453452	      0.14917178	     70.44884956	     15.99517321	    -10.26617759	     75.31644624	      1.31451997	     42.53456514	      2.52485510	     -7.49999936	     91.78967170	    -16.51041014	     17.61612005	     49.23646622	      0.85933845	     11.97274738	      9.22865327	     -7.49999936	    -26.54757868	     14.73629371	     10.93726200	     51.99050278	    -18.34549785	     65.45170371	    121.01211532	     84.21734631	     58.82224900	     -6.48348061	     71.37972462	    116.42889892	    101.52940128
      2.28333330	    -22.13835159	    -12.38241781	      0.31288857	      0.46756915	      0.75556363	      0.14610093	     70.13528942	     15.93968381	    -10.17048793	     75.25712335	      1.31348459	     42.53417079	      2.50753598	     -7.49999937	     91.56700796	    -16.44542500	     17.59927820	     49.29840926	      0.86041956	     11.99353626	      9.24939886	     -7.49999937	    -26.04139543	     14.99021092	     10.35275904	     51.28061878	    -18.25564426	     65.35152337	    121.66548132	     84.33478715	     58.76898589	     -6.18077242	     71.69137716	    117.48653516	    101.58394690
      2.30000000	    -21.94427396	    -12.27225552	      0.31217793	      0.46831460	      0.76163528	      0.14616195	     69.44107768	     15.93867528	     -9.99166796	     74.73214404	      1.30432197	     42.54864234	      2.56467755	     -7.49999938	     91.07635177	    -16.43421042	     17.50871596	     49.10791474	      0.85709480	     12.06789076	      9.20597886	     -7.49999938	    -25.81095024	     15.05698588	      9.72661219	     51.00434098	    -18.09485742	     63.48825779	    121.99349534	     84.46689556	     58.63420985	     -6.34788824	     71.85233877	    117.94275827	    101.75928950
      2.31666670	    -21.83388378	    -12.08069712	      0.26447349	      0.46809515	      0.76190814	      0.14610920	     69.12923646	     15.81298365	     -9.84029595	     74.54443370	      1.30104581	     42.61688252	      2.98209580	     -7.49999941	     90.91384483	    -16.45143660	     17.39291216	     49.15406205	      0.85790022	     12.34974293	      9.37230091	     -7.49999941	    -25.32564416	     14.92052722	      9.19098364	     51.09511546	    -17.79832768	     62.32855391	    122.67078311	     83.65679408	     59.20415379	     -6.31721045	     71.14088353	    118.42639230	    100.85816145
      2.33333330	    -21.99150072	    -11.88124540	      0.32062600	      0.46266654	      0.76315563	      0.14343714	     69.42700844	     15.43498740	     -9.72033414	     74.58380615	      1.30173299	     42.35060860	      2.93484072	     -7.49999945	     91.25711774	    -16.12932623	     17.43205554	     49.44330179	      0.86294841	     12.34827296	      9.37667336	     -7.49999945	    -24.71781630	     15.00275456	      9.14589103	     50.81123793	    -18.61008771	     61.75020829	    124.05919388	     84.63113454	     59.76205124	     -5.69104882	     71.31576756	    118.16569197	    101.57305270
      2.35000000	    -21.66012129	    -11.83852179	      0.61441816	      0.46796770	      0.77021673	      0.14593446	     68.79677388	     15.28053344	     -9.56531395	     74.07088610	      1.29278084	     42.00986995	      2.84558388	     -7.49999945	     90.87770102	    -16.02946864	     17.51527409	     49.39232091	      0.86205863	     12.30441939	      9.33989367	     -7.49999945	    -24.27237335	     15.22581417	      8.76948665	     49.95088480	    -18.87638352	     62.01346247	    123.81394379	     84.64159920	     59.34219574	     -6.07697803	     71.72798937	    117.90058956	    101.50794099
      2.36666670	    -20.70843854	    -11.60161366	      1.15174178	      0.46908245	      0.77838787	      0.14612829	     67.05353438	     15.08921754	     -9.08135112	     73.10946142	      1.27600082	     41.57775955	      2.43329571	     -7.49999947	     89.57123451	    -15.85871830	     17.20667198	     49.08943806	      0.85677232	     12.15553343	      9.39115868	     -7.49999947	    -24.34498047	     15.30101976	      8.03033299	     49.90392202	    -18.29148366	     61.95602501	    123.89713284	     85.11725215	     59.93158856	     -5.76972383	     71.07408504	    118.51266310	    101.60539278
      2.38333330	    -19.86841088	    -11.26692809	      1.65254675	      0.47009665	      0.78949868	      0.14584265	     64.92663754	     14.93486800	     -8.53773258	     71.70438413	      1.25147759	     41.21685007	      1.99886053	     -7.49999948	     87.89514164	    -15.70343902	     16.81349672	     48.31677548	      0.84328682	     11.90275150	      9.38660906	     -7.49999948	    -24.57570967	     15.26150191	      7.17077989	     49.95532311	    -17.98332220	     61.98392736	    124.19891089	     85.50547324	     60.07870038	     -5.97487924	     71.41612600	    118.60492278	    101.79594771
      2.40000000	    -18.94854855	    -10.92923589	      2.26599690	      0.47064204	      0.79959287	      0.14499697	     62.70367244	     14.62181317	     -8.00921638	     70.02682700	      1.22219870	     40.61873707	      1.59930526	     -7.49999949	     85.93096304	    -15.56334637	     16.17271542	     47.19415477	      0.82369339	     11.43739660	      9.52557349	     -7.49999949	    -25.10840269	     15.24243406	      6.57296830	     49.67870491	    -18.09960768	     62.80204417	    123.41370909	     85.78747609	     59.73831843	     -6.48088235	     73.31535233	    117.74089489	    102.11077304
      2.41666670	    -17.68659347	    -10.42957031	      2.74024528	      0.46995854	      0.80518624	      0.14385813	     60.35250668	     14.22144749	     -7.57807897	     68.58250949	      1.19699060	     40.13363170	      1.62246818	     -7.49999953	     83.85936559	    -15.45841998	     15.56876678	     46.46876283	      0.81103291	     11.18472521	      9.75111940	     -7.49999953	    -25.88180587	     15.14588574	      6.08815536	     50.04965287	    -17.93391221	     62.45757555	    123.25163918	     85.45433964	     60.06214365	     -6.69815737	     73.89523891	    118.30852426	    101.60339971
